<svg width="22" height="14" viewBox="0 0 22 14" fill="none" xmlns="http://www.w3.org/2000/svg">
<path opacity="0.54" fill-rule="evenodd" clip-rule="evenodd" d="M7.00002 8.00002C4.66702 8.00002 -0.000976562 9.16702 -0.000976562 11.5V13.999H14V11.5C14 9.16702 9.33402 8.00002 7.00002 8.00002ZM15.001 8.00002C14.71 8.00002 14.384 8.01802 14.035 8.05402C15.193 8.89202 16 10.017 16 11.5V13.999H21.999V11.5C21.999 9.16702 17.334 8.00002 15.001 8.00002ZM7.00002 -0.000976562C5.34402 -0.000976562 4.00002 1.34402 4.00002 3.00002C4.00002 4.65602 5.34402 6.00002 7.00002 6.00002C8.65702 6.00002 9.99102 4.65602 9.99102 3.00002C9.99102 1.34402 8.65702 -0.000976562 7.00002 -0.000976562ZM15.001 -0.000976562C13.343 -0.000976562 12 1.34402 12 3.00002C12 4.65602 13.343 6.00002 15.001 6.00002C16.657 6.00002 17.99 4.65602 17.99 3.00002C17.99 1.34402 16.657 -0.000976562 15.001 -0.000976562Z" fill="black"/>
</svg>
