<svg width="20" height="20" viewBox="0 0 20 20" fill="none" xmlns="http://www.w3.org/2000/svg">
<path opacity="0.54" fill-rule="evenodd" clip-rule="evenodd" d="M3.5 5C2.672 5 2.001 4.327 2.001 3.5C2.001 2.672 2.672 2 3.5 2C4.328 2 5 2.672 5 3.5C5 4.327 4.328 5 3.5 5ZM8.999 0H0V9C0 9.552 0.225 10.051 0.587 10.415L9.59 19.413C9.951 19.775 10.451 20 11.004 20C11.557 20 12.057 19.776 12.418 19.415L19.412 12.42C19.775 12.058 20 11.556 20 11.004C20 10.451 19.777 9.95 19.413 9.59L10.415 0.585C10.051 0.225 9.552 0 8.999 0Z" fill="#000"/>
</svg>
