<svg width="20" height="20" viewBox="0 0 20 20" fill="none" xmlns="http://www.w3.org/2000/svg">
<path opacity="0.54" fill-rule="evenodd" clip-rule="evenodd" d="M6.00002 16C4.89602 16 4.01002 16.895 4.01002 18C4.01002 19.104 4.89602 20 6.00002 20C7.10502 20 8.00002 19.104 8.00002 18C8.00002 16.895 7.10502 16 6.00002 16ZM16 16C14.896 16 14.01 16.895 14.01 18C14.01 19.104 14.896 20 16 20C17.105 20 18 19.104 18 18C18 16.895 17.105 16 16 16ZM2.00002 0H-0.000976562V1.999H2.00002L5.59802 9.587L4.24502 12.038C4.08902 12.325 4.00002 12.653 4.00002 13C4.00002 14.104 4.89602 15 6.00002 15H18V13H6.42302C6.28502 13 6.17402 12.889 6.17402 12.75L6.20402 12.629L7.10202 11H14.551C15.303 11 15.959 10.585 16.301 9.971L19.875 3.482C19.955 3.34 20.001 3.175 20.001 3C20.001 2.447 19.553 1.999 19 1.999H4.21302L3.80702 1.145C3.48802 0.468 2.79802 0 2.00002 0Z" fill="#000"/>
</svg>
